<svg width="36" height="36" viewBox="0 0 36 36" fill="none" xmlns="http://www.w3.org/2000/svg">
<path d="M17.9997 33.7019C9.32762 33.7019 2.29746 26.6721 2.29746 18C2.29746 9.32794 9.32762 2.29778 17.9997 2.29778C26.6721 2.29778 33.7019 9.32794 33.7019 18C33.7019 18.6344 34.2168 19.1489 34.8508 19.1489C35.4848 19.1489 35.9994 18.634 35.9994 18C35.9994 8.05925 27.9405 0 17.9997 0C8.05893 0 0 8.05925 0 18C0 27.9408 8.05893 36 17.9997 36C18.634 36 19.1486 35.4852 19.1486 34.8511C19.1486 34.2171 18.634 33.7019 17.9997 33.7019Z" fill="#4C0085"/>
<path d="M17.9997 33.7019C9.32762 33.7019 2.29746 26.6721 2.29746 18C2.29746 9.32794 9.32762 2.29778 17.9997 2.29778C26.6721 2.29778 33.7019 9.32794 33.7019 18C33.7019 18.6344 34.2168 19.1489 34.8508 19.1489C35.4848 19.1489 35.9994 18.634 35.9994 18C35.9994 8.05925 27.9405 0 17.9997 0C8.05893 0 0 8.05925 0 18C0 27.9408 8.05893 36 17.9997 36C18.634 36 19.1486 35.4852 19.1486 34.8511C19.1486 34.2171 18.634 33.7019 17.9997 33.7019Z" fill="#4C0085"/>
<path d="M16.8508 5.74491V18.3827H10.3397C9.70595 18.3827 9.19141 18.8976 9.19141 19.5316C9.19141 20.1666 9.70627 20.6811 10.3397 20.6811H17.9997C18.634 20.6811 19.1486 20.1663 19.1486 19.5316V5.74491C19.1486 5.11025 18.6337 4.5957 17.9997 4.5957C17.3656 4.5957 16.8508 5.11057 16.8508 5.74491Z" fill="#4C0085"/>
<path d="M16.8508 5.74491V18.3827H10.3397C9.70595 18.3827 9.19141 18.8976 9.19141 19.5316C9.19141 20.1666 9.70627 20.6811 10.3397 20.6811H17.9997C18.634 20.6811 19.1486 20.1663 19.1486 19.5316V5.74491C19.1486 5.11025 18.6337 4.5957 17.9997 4.5957C17.3656 4.5957 16.8508 5.11057 16.8508 5.74491Z" fill="#4C0085"/>
<path d="M27.1914 18.3826C22.3264 18.3826 18.3828 22.3261 18.3828 27.1911C18.3828 32.0565 22.326 36 27.1914 36C32.0561 36 35.9996 32.0568 35.9996 27.1911C35.9996 22.3261 32.0564 18.3826 27.1914 18.3826ZM27.298 31.1141C26.9155 31.6207 26.1941 31.7209 25.6882 31.3383L22.1751 28.6824C21.6698 28.3005 21.5693 27.5795 21.9525 27.073C22.3347 26.5671 23.0561 26.4669 23.5613 26.8488L26.1581 28.8119L29.819 23.9687C30.2016 23.4625 30.9226 23.3623 31.4285 23.7448C31.9344 24.1273 32.0349 24.8484 31.652 25.3546L27.298 31.1141Z" fill="#4C0085"/>
<path d="M27.1914 18.3826C22.3264 18.3826 18.3828 22.3261 18.3828 27.1911C18.3828 32.0565 22.326 36 27.1914 36C32.0561 36 35.9996 32.0568 35.9996 27.1911C35.9996 22.3261 32.0564 18.3826 27.1914 18.3826ZM27.298 31.1141C26.9155 31.6207 26.1941 31.7209 25.6882 31.3383L22.1751 28.6824C21.6698 28.3005 21.5693 27.5795 21.9525 27.073C22.3347 26.5671 23.0561 26.4669 23.5613 26.8488L26.1581 28.8119L29.819 23.9687C30.2016 23.4625 30.9226 23.3623 31.4285 23.7448C31.9344 24.1273 32.0349 24.8484 31.652 25.3546L27.298 31.1141Z" fill="#4C0085"/>
</svg>
